# xmcd CD database file
#
# Track frame offsets:
#	150
#	16494
#	37113
#	63698
#	80380
#	91810
#	113938
#	126535
#	141072
#	153871
#	167824
#	187237
#	204840
#	220829
#	237780
#	251120
#	264302
#	279303
#	304433
#	324624
#
# Disc length: 4712 seconds
#
# Revision: 3
# Processed by: cddbd v1.5.2PL0 Copyright (c) Steve Scherf et al.
# Submitted via: CDex 1.99.1
#
DISCID=27126614
DTITLE=Various Artist - Festival 06 - cd2
DYEAR=2006
DGENRE=Rock
TTITLE0=The Who - Won't Get Fooled Again
TTITLE1=Keane - Bedshaped
TTITLE2=Fatboy Slim - Right Here, Right Now
TTITLE3=The Killers - Mr Brightside
TTITLE4=The Coral - In The Morning
TTITLE5=The Flaming Lips - The Yeah Yeah Yeah Song
TTITLE6=Orson - No Tomorrow
TTITLE7=Razorlight - Somewhere Else
TTITLE8=The Subways - Rock and Roll Queen
TTITLE9=Yeah Yeah Yeahs - Gold Lion
TTITLE10=The Charlatans - Blackened Blue Eyes
TTITLE11=The Goo Goo Dolls - Stay With You
TTITLE12=Linkin Park - Somewhere I Belong
TTITLE13=Depeche Mode - Suffer Well
TTITLE14=The Rakes - Retreat
TTITLE15=Panic! At The Disco - The Only Difference Between Martyrdom And Suicide Is Press Coverage
TTITLE16=Maximo Park - Apply Some Pressure
TTITLE17=The Prodigy - Breathe
TTITLE18=Primal Scream - Kowalski
TTITLE19=Radiohead - Paranoid Android
EXTD=YEAR: 2006
EXTT0=
EXTT1=
EXTT2=
EXTT3=
EXTT4=
EXTT5=
EXTT6=
EXTT7=
EXTT8=
EXTT9=
EXTT10=
EXTT11=
EXTT12=
EXTT13=
EXTT14=
EXTT15=
EXTT16=
EXTT17=
EXTT18=
EXTT19=
PLAYORDER=
